ffmpeg started on 2025-05-26 at 18:00:46
Report written to "D:\Convert\FFMetrics\reports\psnr_report-6.txt"
Log level: 32
Command line:
ffmpeg -hide_banner -nostdin -i "G:\\\xc0\xed\xe8\xec\xe5\\\xce\xed\xe3\xee\xe8\xed\xe3\xe8\\!_34_\xc2\xe5\xf1\xed\xe0_2024\\DreamCast\\\xc4\xe2\xe5 \xf1\xf2\xee\xf0\xee\xed\xfb \xf1\xfd\xe9\xfe \xf0\xe0\xe4\xe8\xee\\[DC] Seiyuu Radio no Uraomote - 01_Telegram_HEVC.mkv" -i "G:\\\xc0\xed\xe8\xec\xe5\\\xce\xed\xe3\xee\xe8\xed\xe3\xe8\\!_34_\xc2\xe5\xf1\xed\xe0_2024\\DreamCast\\\xc4\xe2\xe5 \xf1\xf2\xee\xf0\xee\xed\xfb \xf1\xfd\xe9\xfe \xf0\xe0\xe4\xe8\xee\\[DC] Seiyuu Radio no Uraomote - 01_Telegram.mp4" -lavfi "[0:v]settb=AVTB,setpts=PTS-STARTPTS,format=pix_fmts=yuv420p10,fps=24000/1001,scale=1920:1080:flags=bicubic[main];[1:v]settb=AVTB,setpts=PTS-STARTPTS,format=pix_fmts=yuv420p,fps=24000/1001,scale=1920:1080:flags=bicubic[ref];[main][ref]psnr=eof_action=endall:stats_file='D\\:/Convert/FFMetrics/logs/psnr_logfile-6.txt'" -f null -
Input #0, matroska,webm, from 'G:\Аниме\Онгоинги\!_34_Весна_2024\DreamCast\Две стороны сэйю радио\[DC] Seiyuu Radio no Uraomote - 01_Telegram_HEVC.mkv':
  Metadata:
    COMPATIBLE_BRANDS: isomiso2avc1mp41
    MAJOR_BRAND     : isom
    MINOR_VERSION   : 512
    ENCODER         : Lavf61.7.100
  Duration: 00:23:46.90, start: -0.021000, bitrate: 846 kb/s
  Stream #0:0: Video: hevc (Main 10), yuv420p10le(tv, bt709, progressive), 1920x1080 [SAR 1:1 DAR 16:9], 23.98 fps, 23.98 tbr, 1k tbn (default)
      Metadata:
        HANDLER_NAME    : VideoHandler
        VENDOR_ID       : [0][0][0][0]
        ENCODER         : Lavc61.19.100 libx265
        BPS             : 649368
        DURATION        : 00:23:46.549708333
        NUMBER_OF_FRAMES: 34203
        NUMBER_OF_BYTES : 115794409
        _STATISTICS_WRITING_APP: mkvpropedit v66.0.0 ('Josie') 64-bit
        _STATISTICS_WRITING_DATE_UTC: 2025-05-26 07:46:51
        _STATISTICS_TAGS: BPS DURATION NUMBER_OF_FRAMES NUMBER_OF_BYTES
  Stream #0:1: Audio: aac (LC), 48000 Hz, stereo, fltp (default)
      Metadata:
        HANDLER_NAME    : SoundHandler
        VENDOR_ID       : [0][0][0][0]
        ENCODER         : Lavc61.19.100 aac
        BPS             : 192997
        DURATION        : 00:23:46.901000000
        NUMBER_OF_FRAMES: 66887
        NUMBER_OF_BYTES : 34423454
        _STATISTICS_WRITING_APP: mkvpropedit v66.0.0 ('Josie') 64-bit
        _STATISTICS_WRITING_DATE_UTC: 2025-05-26 07:46:51
        _STATISTICS_TAGS: BPS DURATION NUMBER_OF_FRAMES NUMBER_OF_BYTES
Input #1, mov,mp4,m4a,3gp,3g2,mj2, from 'G:\Аниме\Онгоинги\!_34_Весна_2024\DreamCast\Две стороны сэйю радио\[DC] Seiyuu Radio no Uraomote - 01_Telegram.mp4':
  Metadata:
    major_brand     : isom
    minor_version   : 512
    compatible_brands: isomiso2avc1mp41
    encoder         : Lavf60.16.100
  Duration: 00:23:46.86, start: 0.000000, bitrate: 3633 kb/s
  Stream #1:0[0x1](und): Video: h264 (High) (avc1 / 0x31637661), yuv420p(tv, bt709, progressive), 1920x1080 [SAR 1:1 DAR 16:9], 3486 kb/s, 23.98 fps, 23.98 tbr, 24k tbn (default)
      Metadata:
        handler_name    : VideoHandler
        vendor_id       : [0][0][0][0]
        encoder         : Lavc60.31.102 h264_qsv
  Stream #1:1[0x2](und): Audio: aac (HE-AACv2) (mp4a / 0x6134706D), 48000 Hz, stereo, fltp, 144 kb/s (default)
      Metadata:
        handler_name    : SoundHandler
        vendor_id       : [0][0][0][0]
Stream mapping:
  Stream #0:0 (hevc) -> settb:default
  Stream #1:0 (h264) -> settb:default
  psnr:default -> Stream #0:0 (wrapped_avframe)
  Stream #0:1 -> #0:1 (aac (native) -> pcm_s16le (native))
Output #0, null, to 'pipe:':
  Metadata:
    COMPATIBLE_BRANDS: isomiso2avc1mp41
    MAJOR_BRAND     : isom
    MINOR_VERSION   : 512
    encoder         : Lavf61.7.100
  Stream #0:0: Video: wrapped_avframe, yuv420p10le(tv, bt709, progressive), 1920x1080 [SAR 1:1 DAR 16:9], q=2-31, 200 kb/s, 23.98 fps, 23.98 tbn
      Metadata:
        encoder         : Lavc61.19.100 wrapped_avframe
  Stream #0:1: Audio: pcm_s16le, 48000 Hz, stereo, s16, 1536 kb/s (default)
      Metadata:
        HANDLER_NAME    : SoundHandler
        VENDOR_ID       : [0][0][0][0]
        _STATISTICS_TAGS: BPS DURATION NUMBER_OF_FRAMES NUMBER_OF_BYTES
        BPS             : 192997
        DURATION        : 00:23:46.901000000
        NUMBER_OF_FRAMES: 66887
        NUMBER_OF_BYTES : 34423454
        _STATISTICS_WRITING_APP: mkvpropedit v66.0.0 ('Josie') 64-bit
        _STATISTICS_WRITING_DATE_UTC: 2025-05-26 07:46:51
        encoder         : Lavc61.19.100 pcm_s16le
frame=  191 fps=0.0 q=-0.0 size=N/A time=00:00:07.96 bitrate=N/A speed=15.5x    frame=  458 fps=449 q=-0.0 size=N/A time=00:00:19.10 bitrate=N/A speed=18.7x    frame=  747 fps=484 q=-0.0 size=N/A time=00:00:31.15 bitrate=N/A speed=20.2x    frame= 1012 fps=493 q=-0.0 size=N/A time=00:00:42.20 bitrate=N/A speed=20.6x    frame= 1278 fps=498 q=-0.0 size=N/A time=00:00:53.30 bitrate=N/A speed=20.8x    frame= 1548 fps=501 q=-0.0 size=N/A time=00:01:04.56 bitrate=N/A speed=20.9x    frame= 1767 fps=490 q=-0.0 size=N/A time=00:01:13.69 bitrate=N/A speed=20.4x    frame= 1976 fps=479 q=-0.0 size=N/A time=00:01:22.41 bitrate=N/A speed=  20x    frame= 2209 fps=477 q=-0.0 size=N/A time=00:01:32.13 bitrate=N/A speed=19.9x    frame= 2444 fps=474 q=-0.0 size=N/A time=00:01:41.93 bitrate=N/A speed=19.8x    frame= 2692 fps=476 q=-0.0 size=N/A time=00:01:52.27 bitrate=N/A speed=19.8x    frame= 2937 fps=475 q=-0.0 size=N/A time=00:02:02.49 bitrate=N/A speed=19.8x    frame= 3167 fps=473 q=-0.0 size=N/A time=00:02:12.09 bitrate=N/A speed=19.7x    frame= 3429 fps=475 q=-0.0 size=N/A time=00:02:23.01 bitrate=N/A speed=19.8x    frame= 3639 fps=471 q=-0.0 size=N/A time=00:02:31.77 bitrate=N/A speed=19.7x    frame= 3874 fps=470 q=-0.0 size=N/A time=00:02:41.57 bitrate=N/A speed=19.6x    frame= 4133 fps=472 q=-0.0 size=N/A time=00:02:52.38 bitrate=N/A speed=19.7x    frame= 4389 fps=473 q=-0.0 size=N/A time=00:03:03.05 bitrate=N/A speed=19.7x    frame= 4643 fps=474 q=-0.0 size=N/A time=00:03:13.65 bitrate=N/A speed=19.8x    frame= 4909 fps=476 q=-0.0 size=N/A time=00:03:24.74 bitrate=N/A speed=19.9x    frame= 5172 fps=478 q=-0.0 size=N/A time=00:03:35.71 bitrate=N/A speed=19.9x    frame= 5441 fps=480 q=-0.0 size=N/A time=00:03:46.93 bitrate=N/A speed=  20x    frame= 5674 fps=479 q=-0.0 size=N/A time=00:03:56.65 bitrate=N/A speed=  20x    frame= 5908 fps=478 q=-0.0 size=N/A time=00:04:06.41 bitrate=N/A speed=19.9x    frame= 6145 fps=477 q=-0.0 size=N/A time=00:04:16.29 bitrate=N/A speed=19.9x    frame= 6385 fps=477 q=-0.0 size=N/A time=00:04:26.30 bitrate=N/A speed=19.9x    frame= 6632 fps=477 q=-0.0 size=N/A time=00:04:36.60 bitrate=N/A speed=19.9x    frame= 6897 fps=478 q=-0.0 size=N/A time=00:04:47.66 bitrate=N/A speed=19.9x    frame= 7148 fps=478 q=-0.0 size=N/A time=00:04:58.13 bitrate=N/A speed=  20x    frame= 7420 fps=480 q=-0.0 size=N/A time=00:05:09.47 bitrate=N/A speed=  20x    frame= 7664 fps=480 q=-0.0 size=N/A time=00:05:19.69 bitrate=N/A speed=  20x    frame= 7916 fps=480 q=-0.0 size=N/A time=00:05:30.16 bitrate=N/A speed=  20x    frame= 8192 fps=482 q=-0.0 size=N/A time=00:05:41.67 bitrate=N/A speed=20.1x    frame= 8472 fps=483 q=-0.0 size=N/A time=00:05:53.35 bitrate=N/A speed=20.2x    frame= 8746 fps=485 q=-0.0 size=N/A time=00:06:04.78 bitrate=N/A speed=20.2x    frame= 9006 fps=485 q=-0.0 size=N/A time=00:06:15.62 bitrate=N/A speed=20.2x    frame= 9266 fps=486 q=-0.0 size=N/A time=00:06:26.46 bitrate=N/A speed=20.3x    frame= 9528 fps=487 q=-0.0 size=N/A time=00:06:37.39 bitrate=N/A speed=20.3x    frame= 9775 fps=486 q=-0.0 size=N/A time=00:06:47.69 bitrate=N/A speed=20.3x    frame=10033 fps=487 q=-0.0 size=N/A time=00:06:58.45 bitrate=N/A speed=20.3x    frame=10301 fps=487 q=-0.0 size=N/A time=00:07:09.63 bitrate=N/A speed=20.3x    frame=10537 fps=487 q=-0.0 size=N/A time=00:07:19.48 bitrate=N/A speed=20.3x    frame=10767 fps=486 q=-0.0 size=N/A time=00:07:29.07 bitrate=N/A speed=20.3x    frame=10995 fps=485 q=-0.0 size=N/A time=00:07:38.58 bitrate=N/A speed=20.2x    frame=11234 fps=484 q=-0.0 size=N/A time=00:07:48.55 bitrate=N/A speed=20.2x    frame=11485 fps=484 q=-0.0 size=N/A time=00:07:59.02 bitrate=N/A speed=20.2x    frame=11758 fps=485 q=-0.0 size=N/A time=00:08:10.40 bitrate=N/A speed=20.2x    frame=12033 fps=486 q=-0.0 size=N/A time=00:08:21.87 bitrate=N/A speed=20.3x    frame=12316 fps=488 q=-0.0 size=N/A time=00:08:33.67 bitrate=N/A speed=20.3x    frame=12595 fps=489 q=-0.0 size=N/A time=00:08:45.31 bitrate=N/A speed=20.4x    frame=12863 fps=489 q=-0.0 size=N/A time=00:08:56.49 bitrate=N/A speed=20.4x    frame=13134 fps=490 q=-0.0 size=N/A time=00:09:07.79 bitrate=N/A speed=20.4x    frame=13397 fps=490 q=-0.0 size=N/A time=00:09:18.76 bitrate=N/A speed=20.5x    frame=13679 fps=492 q=-0.0 size=N/A time=00:09:30.52 bitrate=N/A speed=20.5x    frame=13953 fps=492 q=-0.0 size=N/A time=00:09:41.95 bitrate=N/A speed=20.5x    frame=14211 fps=492 q=-0.0 size=N/A time=00:09:52.71 bitrate=N/A speed=20.5x    frame=14483 fps=493 q=-0.0 size=N/A time=00:10:04.06 bitrate=N/A speed=20.6x    frame=14747 fps=493 q=-0.0 size=N/A time=00:10:15.07 bitrate=N/A speed=20.6x    frame=15029 fps=494 q=-0.0 size=N/A time=00:10:26.83 bitrate=N/A speed=20.6x    frame=15310 fps=495 q=-0.0 size=N/A time=00:10:38.55 bitrate=N/A speed=20.6x    frame=15588 fps=496 q=-0.0 size=N/A time=00:10:50.14 bitrate=N/A speed=20.7x    frame=15870 fps=497 q=-0.0 size=N/A time=00:11:01.91 bitrate=N/A speed=20.7x    frame=16133 fps=497 q=-0.0 size=N/A time=00:11:12.88 bitrate=N/A speed=20.7x    frame=16413 fps=497 q=-0.0 size=N/A time=00:11:24.55 bitrate=N/A speed=20.7x    frame=16684 fps=498 q=-0.0 size=N/A time=00:11:35.86 bitrate=N/A speed=20.8x    frame=16949 fps=498 q=-0.0 size=N/A time=00:11:46.91 bitrate=N/A speed=20.8x    frame=17204 fps=498 q=-0.0 size=N/A time=00:11:57.55 bitrate=N/A speed=20.8x    frame=17465 fps=498 q=-0.0 size=N/A time=00:12:08.43 bitrate=N/A speed=20.8x    frame=17724 fps=498 q=-0.0 size=N/A time=00:12:19.23 bitrate=N/A speed=20.8x    frame=17992 fps=498 q=-0.0 size=N/A time=00:12:30.41 bitrate=N/A speed=20.8x    frame=18268 fps=499 q=-0.0 size=N/A time=00:12:41.92 bitrate=N/A speed=20.8x    frame=18553 fps=500 q=-0.0 size=N/A time=00:12:53.81 bitrate=N/A speed=20.8x    frame=18822 fps=500 q=-0.0 size=N/A time=00:13:05.03 bitrate=N/A speed=20.9x    frame=19103 fps=501 q=-0.0 size=N/A time=00:13:16.75 bitrate=N/A speed=20.9x    frame=19367 fps=501 q=-0.0 size=N/A time=00:13:27.76 bitrate=N/A speed=20.9x    frame=19631 fps=501 q=-0.0 size=N/A time=00:13:38.77 bitrate=N/A speed=20.9x    frame=19909 fps=502 q=-0.0 size=N/A time=00:13:50.37 bitrate=N/A speed=20.9x    frame=20191 fps=502 q=-0.0 size=N/A time=00:14:02.13 bitrate=N/A speed=20.9x    frame=20465 fps=502 q=-0.0 size=N/A time=00:14:13.56 bitrate=N/A speed=  21x    frame=20735 fps=503 q=-0.0 size=N/A time=00:14:24.82 bitrate=N/A speed=  21x    frame=21018 fps=503 q=-0.0 size=N/A time=00:14:36.62 bitrate=N/A speed=  21x    frame=21283 fps=504 q=-0.0 size=N/A time=00:14:47.67 bitrate=N/A speed=  21x    frame=21556 fps=504 q=-0.0 size=N/A time=00:14:59.06 bitrate=N/A speed=  21x    frame=21833 fps=504 q=-0.0 size=N/A time=00:15:10.61 bitrate=N/A speed=  21x    frame=22066 fps=504 q=-0.0 size=N/A time=00:15:20.33 bitrate=N/A speed=  21x    frame=22308 fps=503 q=-0.0 size=N/A time=00:15:30.42 bitrate=N/A speed=  21x    frame=22565 fps=503 q=-0.0 size=N/A time=00:15:41.14 bitrate=N/A speed=  21x    frame=22832 fps=503 q=-0.0 size=N/A time=00:15:52.28 bitrate=N/A speed=  21x    frame=23096 fps=503 q=-0.0 size=N/A time=00:16:03.29 bitrate=N/A speed=  21x    frame=23340 fps=503 q=-0.0 size=N/A time=00:16:13.47 bitrate=N/A speed=  21x    frame=23600 fps=503 q=-0.0 size=N/A time=00:16:24.31 bitrate=N/A speed=  21x    frame=23838 fps=503 q=-0.0 size=N/A time=00:16:34.28 bitrate=N/A speed=  21x    frame=24083 fps=502 q=-0.0 size=N/A time=00:16:44.46 bitrate=N/A speed=  21x    frame=24334 fps=502 q=-0.0 size=N/A time=00:16:54.93 bitrate=N/A speed=20.9x    frame=24575 fps=502 q=-0.0 size=N/A time=00:17:04.98 bitrate=N/A speed=20.9x    frame=24834 fps=502 q=-0.0 size=N/A time=00:17:15.78 bitrate=N/A speed=20.9x    frame=25084 fps=502 q=-0.0 size=N/A time=00:17:26.21 bitrate=N/A speed=20.9x    frame=25358 fps=502 q=-0.0 size=N/A time=00:17:37.63 bitrate=N/A speed=20.9x    frame=25620 fps=502 q=-0.0 size=N/A time=00:17:48.56 bitrate=N/A speed=20.9x    frame=25889 fps=502 q=-0.0 size=N/A time=00:17:59.78 bitrate=N/A speed=20.9x    frame=26157 fps=502 q=-0.0 size=N/A time=00:18:10.96 bitrate=N/A speed=  21x    frame=26443 fps=503 q=-0.0 size=N/A time=00:18:22.89 bitrate=N/A speed=  21x    frame=26711 fps=503 q=-0.0 size=N/A time=00:18:34.07 bitrate=N/A speed=  21x    frame=26978 fps=503 q=-0.0 size=N/A time=00:18:45.20 bitrate=N/A speed=  21x    frame=27228 fps=503 q=-0.0 size=N/A time=00:18:55.63 bitrate=N/A speed=  21x    frame=27508 fps=503 q=-0.0 size=N/A time=00:19:07.31 bitrate=N/A speed=  21x    frame=27783 fps=504 q=-0.0 size=N/A time=00:19:18.78 bitrate=N/A speed=  21x    frame=28049 fps=504 q=-0.0 size=N/A time=00:19:29.87 bitrate=N/A speed=  21x    frame=28311 fps=504 q=-0.0 size=N/A time=00:19:40.80 bitrate=N/A speed=  21x    frame=28555 fps=504 q=-0.0 size=N/A time=00:19:50.98 bitrate=N/A speed=  21x    frame=28800 fps=503 q=-0.0 size=N/A time=00:20:01.20 bitrate=N/A speed=  21x    frame=29049 fps=503 q=-0.0 size=N/A time=00:20:11.58 bitrate=N/A speed=  21x    frame=29306 fps=503 q=-0.0 size=N/A time=00:20:22.30 bitrate=N/A speed=  21x    frame=29534 fps=502 q=-0.0 size=N/A time=00:20:31.81 bitrate=N/A speed=  21x    frame=29766 fps=502 q=-0.0 size=N/A time=00:20:41.49 bitrate=N/A speed=20.9x    frame=30025 fps=502 q=-0.0 size=N/A time=00:20:52.29 bitrate=N/A speed=20.9x    frame=30274 fps=502 q=-0.0 size=N/A time=00:21:02.67 bitrate=N/A speed=20.9x    frame=30535 fps=502 q=-0.0 size=N/A time=00:21:13.56 bitrate=N/A speed=20.9x    frame=30743 fps=501 q=-0.0 size=N/A time=00:21:22.23 bitrate=N/A speed=20.9x    frame=30950 fps=500 q=-0.0 size=N/A time=00:21:30.87 bitrate=N/A speed=20.9x    frame=31175 fps=500 q=-0.0 size=N/A time=00:21:40.25 bitrate=N/A speed=20.8x    frame=31390 fps=499 q=-0.0 size=N/A time=00:21:49.22 bitrate=N/A speed=20.8x    frame=31583 fps=498 q=-0.0 size=N/A time=00:21:57.27 bitrate=N/A speed=20.8x    frame=31788 fps=497 q=-0.0 size=N/A time=00:22:05.82 bitrate=N/A speed=20.7x    frame=32010 fps=497 q=-0.0 size=N/A time=00:22:15.08 bitrate=N/A speed=20.7x    frame=32227 fps=496 q=-0.0 size=N/A time=00:22:24.13 bitrate=N/A speed=20.7x    frame=32448 fps=495 q=-0.0 size=N/A time=00:22:33.35 bitrate=N/A speed=20.7x    frame=32698 fps=495 q=-0.0 size=N/A time=00:22:43.77 bitrate=N/A speed=20.7x    frame=32957 fps=495 q=-0.0 size=N/A time=00:22:54.58 bitrate=N/A speed=20.7x    frame=33178 fps=495 q=-0.0 size=N/A time=00:23:03.79 bitrate=N/A speed=20.6x    frame=33410 fps=495 q=-0.0 size=N/A time=00:23:13.47 bitrate=N/A speed=20.6x    frame=33682 fps=495 q=-0.0 size=N/A time=00:23:24.82 bitrate=N/A speed=20.6x    frame=33914 fps=495 q=-0.0 size=N/A time=00:23:34.49 bitrate=N/A speed=20.6x    frame=34154 fps=494 q=-0.0 size=N/A time=00:23:44.50 bitrate=N/A speed=20.6x    [Parsed_psnr_10 @ 000001e59329efc0] PSNR y:49.156736 u:51.097695 v:50.786159 average:49.673623 min:41.464575 max:inf
[out#0/null @ 000001e58b7c3b80] video:14697KiB audio:267548KiB subtitle:0KiB other streams:0KiB global headers:0KiB muxing overhead: unknown
frame=34203 fps=494 q=-0.0 Lsize=N/A time=00:23:46.55 bitrate=N/A speed=20.6x    
